# xmcd CD database file
#
# Track frame offsets:
#	150
#	18767
#	37435
#	57222
#	85170
#	104780
#	128017
#	144880
#	165667
#	182367
#	209090
#	232200
#
# Disc length: 3299 seconds
#
# Revision: 0
# Processed by: cddbd v1.4PL0 Copyright (c) Steve Scherf et al.
# Submitted via: CDex 1.50beta9
#
DISCID=a80ce10c
DTITLE=Aleksei Saks - fluegelhorn - O Grande Amor
DYEAR=2002
DGENRE=Jazz
TTITLE0=O Grande Amor (A.C.Jobim)
TTITLE1=How Deep Is The Ocean (I.Berlin)
TTITLE2=Igapäev (H.Karmo)
TTITLE3=I'm Glad There Is You (J.Dorsey)
TTITLE4=Four Wheels Drive (J.Eespere)
TTITLE5=Kordan sinu nime (E.Tamberg)
TTITLE6=Doralice (A.C.Jobim)
TTITLE7=The Boy Next Door (H.Martin/R.Blane)
TTITLE8=Palus pohli punetab (U.Naissoo)
TTITLE9=Menina Moca (A.C.Jobim)
TTITLE10=J-Jam Blues (J.Eespere)
TTITLE11=Travels (P.Metheny)
EXTD=YEAR: 2002
EXTT0=
EXTT1=
EXTT2=
EXTT3=
EXTT4=
EXTT5=
EXTT6=
EXTT7=
EXTT8=
EXTT9=
EXTT10=
EXTT11=
PLAYORDER=
